Coordinates
version=1
nRows=13
nColumns=34
inDegrees=yes

Units are S.I. units (second, meters, Newtons, ...)
If the header above contains a line with 'inDegrees', this indicates whether rotational values are in degrees (yes) or radians (no).

endheader
time	pelvis_tilt	pelvis_list	pelvis_rotation	pelvis_tx	pelvis_ty	pelvis_tz	hip_flexion_r	hip_adduction_r	hip_rotation_r	knee_angle_r	ankle_angle_r	subtalar_angle_r	mtp_angle_r	hip_flexion_l	hip_adduction_l	hip_rotation_l	knee_angle_l	ankle_angle_l	subtalar_angle_l	mtp_angle_l	lumbar_extension	lumbar_bending	lumbar_rotation	arm_flex_r	arm_add_r	arm_rot_r	elbow_flex_r	pro_sup_r	arm_flex_l	arm_add_l	arm_rot_l	elbow_flex_l	pro_sup_l
      8.05000000	      6.75209856	     -6.85290365	    -29.26874593	      1.38900844	      0.98680848	      0.45930451	    -19.11564237	      1.41003006	     -4.26461965	      6.94377376	     17.33655302	      1.74158316	      0.00000000	    -13.29458449	      0.96499956	      7.32487685	      8.24302942	     19.18109186	     -3.66563941	      0.00000000	     -3.80364784	     -5.94370867	     10.46055962	     11.92758894	     -9.74297278	     25.00188016	     19.05631900	    119.74817918	      1.96834674	     -3.77576061	     -0.58901492	     18.25987311	    112.81403667
      8.06666670	      6.77541972	     -7.33948581	    -29.14816673	      1.39143278	      0.98755349	      0.45836525	    -18.48051219	      1.62036715	     -4.62213546	      8.95109712	     17.29745947	      1.45001923	      0.00000000	    -13.88207419	      0.64281716	      7.61669941	      7.87209524	     19.22520880	     -3.52989912	      0.00000000	     -4.10805545	     -5.48867455	     10.18459560	     11.47856558	     -9.56944169	     25.05032968	     18.83481516	    119.74817918	      2.03020115	     -3.97819398	     -0.60274887	     18.33279627	    112.84610475
      8.08333330	      6.57950866	     -7.28702437	    -29.16636815	      1.39350779	      0.98739621	      0.45648516	    -16.48486923	      0.90791880	     -7.71361698	     12.70063451	     19.24119520	      4.80100626	      0.00000000	    -13.78812898	      0.84967243	      8.51677188	      7.73997433	     18.93531465	     -4.59625935	      0.00000000	     -4.01914629	     -5.35508552	     10.07445028	     11.05721658	     -9.53823876	     25.54354415	     18.40160067	    119.74817918	      2.24570091	     -4.10903228	     -0.50840913	     18.24392942	    113.35501333
      8.10000000	      6.62483451	     -7.43032800	    -29.10685682	      1.39473446	      0.98777846	      0.45484379	    -15.20362369	      0.60613345	     -8.20163378	     15.52982971	     19.54440512	      4.50617805	      0.00000000	    -14.04281102	      0.86488326	      8.66832825	      7.46675620	     18.71189294	     -4.58198833	      0.00000000	     -4.41222837	     -5.22176555	      9.70727969	     10.88602038	     -9.32661722	     25.58291016	     17.99971244	    119.74817918	      2.71511165	     -4.32569014	     -0.55378787	     17.91997214	    113.44895081
      8.11666670	      6.50364118	     -7.47588009	    -29.37375855	      1.39516078	      0.98775856	      0.45316915	    -13.37635514	      0.05952373	     -9.02585241	     18.91582250	     19.98485118	      4.79734756	      0.00000000	    -13.97771019	      0.97133535	      8.71070366	      7.38984055	     18.63854948	     -4.79872753	      0.00000000	     -4.64112747	     -5.05577211	      9.55434830	     10.81025803	     -9.22440536	     25.70747910	     17.71245888	    119.74817918	      3.27685015	     -4.53976644	     -0.50484764	     17.52853354	    113.55995778
      8.13333330	      6.53644144	     -8.00264075	    -29.39408416	      1.39539911	      0.98839873	      0.45149834	    -12.34753434	      0.10629207	     -9.42757696	     21.46387828	     19.54782018	      4.55179799	      0.00000000	    -14.45921500	      0.59805089	      8.76113603	      7.00930071	     18.71182772	     -4.71980884	      0.00000000	     -5.38477677	     -4.47969748	      9.07116095	     10.86652262	     -9.17601119	     25.71369361	     17.69671519	    119.74817918	      3.86599250	     -4.82454286	     -0.51297051	     17.51275069	    113.57313930
      8.15000000	      6.24345793	     -7.23349058	    -30.26344759	      1.39478657	      0.98719163	      0.44940388	     -9.29586622	     -1.56236263	    -10.24244401	     25.95821736	     20.38179363	      5.39994563	      0.00000000	    -13.60784770	      1.57676110	      8.32631998	      7.21196319	     18.63589941	     -5.15107250	      0.00000000	     -5.09536097	     -4.90208720	      9.36314234	     10.93096340	     -9.14770679	     26.06644879	     17.29501805	    119.74817918	      4.69238119	     -5.06371173	     -0.21019850	     16.91078061	    113.71582571
      8.16666670	      6.26648112	     -7.01725664	    -30.83323600	      1.39409228	      0.98690796	      0.44741063	     -7.27641256	     -2.57800479	    -10.56443139	     29.52047000	     20.31386152	      5.24228707	      0.00000000	    -13.50335793	      2.07581194	      7.99529934	      7.10760986	     18.44349028	     -5.31551251	      0.00000000	     -5.51210504	     -4.99656919	      9.27441197	     11.17314915	     -9.13410419	     26.25056343	     17.10112047	    119.74817918	      5.55704384	     -5.35290107	     -0.07823366	     16.53741023	    113.76362258
      8.18333330	      6.01151498	     -6.63515482	    -31.78590214	      1.39302073	      0.98611288	      0.44585238	     -4.78706631	     -3.66471829	    -10.62039051	     33.16058223	     19.88957443	      5.06065991	      0.00000000	    -13.03629444	      2.64952026	      7.46502982	      7.03004394	     18.32077519	     -5.69377786	      0.00000000	     -5.49431847	     -5.07143777	      9.49243783	     11.36327502	     -9.15988067	     26.48803546	     16.95274104	    119.74817918	      6.27034772	     -5.66556002	      0.10583301	     16.38500820	    113.80552183
      8.20000000	      5.79870582	     -6.27005422	    -32.68086183	      1.39168884	      0.98537569	      0.44411997	     -2.40762961	     -4.63109540	    -10.40511352	     36.60284032	     19.32167040	      4.42511120	      0.00000000	    -12.61899473	      3.19947515	      6.94942361	      6.88149705	     18.14935613	     -6.06045681	      0.00000000	     -5.56762350	     -5.15924565	      9.65368109	     11.59438804	     -9.20010105	     26.65302492	     16.81574191	    119.74817918	      7.03734318	     -6.01685715	      0.26193468	     16.33317807	    113.83128395
      8.21666670	      5.44748720	     -5.90582462	    -33.75027903	      1.38985334	      0.98459647	      0.44277658	      0.11452952	     -5.28885075	     -9.62256888	     40.00304257	     19.24481081	      3.32887863	      0.00000000	    -12.04742945	      3.65746924	      6.35066090	      6.75945559	     18.01006226	     -6.53201977	      0.00000000	     -5.48588929	     -5.19104845	      9.86517157	     11.88044962	     -9.21513054	     26.91162309	     16.72660743	    119.74817918	      7.73619992	     -6.44361361	      0.51831996	     16.33298053	    113.89833382
      8.23333330	      5.45902277	     -6.12771751	    -34.25368315	      1.38901647	      0.98492142	      0.44064842	      1.36711377	     -5.64705340	     -9.63296106	     42.42733004	     18.77196897	      2.67704567	      0.00000000	    -12.21480347	      3.71029416	      6.13104452	      6.55360069	     18.09856228	     -6.67386857	      0.00000000	     -6.14299757	     -4.76599837	      9.55375393	     12.20438984	     -9.42267820	     26.91428545	     16.72697112	    119.74817918	      8.42346991	     -6.72767772	      0.57416263	     16.51212728	    113.91756046
      8.25000000	      4.96838070	     -5.37821402	    -35.63830413	      1.38637155	      0.98356120	      0.43966734	      4.19956152	     -6.29176234	     -8.31181546	     45.23237069	     18.22049463	      0.83137335	      0.00000000	    -11.21061560	      4.42911274	      5.22222779	      6.46043032	     17.66054111	     -7.25595045	      0.00000000	     -5.64122960	     -5.09032226	     10.14108558	     12.51006601	     -9.42363666	     27.11651398	     16.49881118	    119.74817918	      9.16785979	     -7.24249994	      0.90557013	     16.69840706	    114.05049253
